/* XPM */
static char * racing_car_xpm[] = {
"186 87 16 1",
" 	c None",
".	c #525249",
"+	c #525349",
"@	c #525449",
"#	c #52524A",
"$	c #52534A",
"%	c #535349",
"&	c #525348",
"*	c #535348",
"=	c #51534A",
"-	c #53534A",
";	c #515349",
">	c #525448",
",	c #525248",
"'	c #515348",
")	c #52544A",
"                                                                                       .++++++++++.                                                                                       ",
"                                                                                     ++++++++++++++++                                                                                     ",
"                                                                                   +.++++++++++++++++@@                                                                                   ",
"                                                                                  ++++++++++++++++++++++#                                                                                 ",
"                                                                                 +++++++++++++++++++++++++                                                                                ",
"                                                                                $++++++++++++++++++++++++@+                                                                               ",
"                                                                               $++++++++++++++++++++++++++++                                                                              ",
"                                                                               +++++++++++++++++++++++++++++                                                                              ",
"                                                                               +++++++++++++++++++++++++++++#                                                                             ",
"                                                                              %+++++++++++++++++++++++++++++++                                                                            ",
"                                                                              %+++++++++++++++++++++++++++++++                                                                            ",
"                                                                              %+++++++++++++++++++++++++++++++                                                                            ",
"                                                                              @++&+@%+&++++++++++++++++++&&*++                                                                            ",
"                                                                                         +++++++++++++                                                                                    ",
"                                                                                                                                                                                          ",
"                                                                                 =++++$%                  @@.++                                                                           ",
"                                                                                ++++++++++@     ++++++++++++++++                                                                          ",
"                                                                               +++++++++++@++++++++++++++++++++-                                                                          ",
"                                                                                        +@++++++++++++;+.+++>+       ++++++++                                                             ",
"                                                                                         +++++++++++                +++++++++++++++                                                       ",
"                                                                                        ++++                        ++++++++++++++++@+,                                                   ",
"                                                                        ;              ++++           -+;      '     +++++++++++++++++++++-                                               ",
"                                                                       +++            ++++    ++++++++++    ++++++    +++++++++++++++++++++++                                             ",
"                                                                 ++    @++    #     .+++++   +++++++++++   +++++++++   ++++++++++++++++++++++++                                           ",
"                                                            @+++++++   @++@   ++    +++-    ++++++++++@   +++++++++++   ++++++++++++++++++++++++;;                                        ",
"                                                         ++++++++++++   +++   +++    +     ++++++++++++  ++++++++++++   ++++++++++++++++++++++++++++                                      ",
"                                                       @>++++++++++++   +++   +++.        ++++++++++++   @+++++++++++$   ++++++++++++++++++++++++++++;                                    ",
"                                                     ++++++++++++++++   -++    +++++    +++++++++++++   @++++++++++++++  +++++++++++++++++++++++++++++++                                  ",
"                                                   ++++++++++++++++++$   ++&    ++++++++++++++++++++$   +++++++++++++++   +++++++++++++++++++++++++++++++                                 ",
"                                                  .++++++++++++++++++$   ++&      +++++++++++++++++$   ++++++++++++++++*  %++++++++++++++++++++++++++++++++                               ",
"                            ==$$$$$$++              %-+++++++++++++++;   ..++      *+++++++++++++++   &+++++++++++++++++   +++++++++++++++++++++++++++++++++@                             ",
"                      +++++++++++++++++++++++          ++++++++++++++++   .+       &+++++++++++++++   ++++++++++++++++++   +++++++++++++++++++++++++++++++++++                            ",
"                  #+@++++++++++++++++++++++++...;+        ;;+++++++++++             ++++++++++++++   +++++++++++++++++++;   +++++++++++++++++++++++++++++++++++                           ",
"               +++++++++++++++++++++++++++++++++++++++        ++++++++++     .+++=   +++++++++++;;   +++++++++++++++++++@   +++++++++++++++++++++++++++++++++++++                         ",
"             ++++++++++++++++++++++++++++++++++++++++++++        +++++++   +++++++   +++++++++++;   ++++++++++++++++++++@    +++++++++++++++++++++++++++++++++++++++                      ",
"           ..++++++++++++++++++++++++++++++++++++++++++++++.        #;++   ++++++++   @+++++++++   #+++++++++++++++++@@+     $++++++++++++++++++++++++++++++++++++++++                    ",
"         ++++++++++++++++++++++++++++++++++++++++++++++++++++++@           +++;++++    +++++++++   +++++++++++++..          $$++++++++++++++++++++++++++++++++++++++++++                  ",
"        ++++++++++++++++++++++++++++++++++++++++++++++++++++++++++++            ++      +++++++    ++++++++              %+++++++++++++++++++++++++++++++++++++++++++++++@                ",
"      >++++++++++++++++++++++++++++++++++++++++++++++++++++++++++++++=+.                                             +++%+++++++++++++++++++++++++++++++++++++++++++++++++@               ",
"     ;+++++++++++++++++++++++++++++++++++++++++++++++++++++++++++++++++++++++.++                            .$$;++++++++++++++++++++++++++++++++++++++++++++++++++++++++++++              ",
"    ++++++++++++++++++++++++++++++++++++++++++++++++++++++++++++++++++++++++++++++++++++++++++++++++++++++++++++++++++++++++++++++++++++++++++++++++++++++++++++++++++++++++++            ",
"   ++++++++++++++++++++++++++++++++++++++++++++++++++++++++++++++++++++++++++++++++++++++++++++++++++++++++++++++++++++++++++++++++++++++++++++++++++++++++++++++++++++++++++++           ",
"  #++++++++++++++++++++++++++++++++++++%++++.+++++++++++++++++++++++++++++++++++++++++++++++++++++++++++++++++++++++++++++++++++++++++++++++++++++++++++++++++++++++++++++++++++          ",
" #+++++++++++++++++++++++++++++++++++        +++++++++++++++++++++++++++++++++++++++++++++++++++++++++++++++++++++++++++++++++++++++++++++++++++++        +++++++++++++++++++++++         ",
".++++++++++++++++++++++++++++++++                ++++++++++++++++++++++++++++++++++++++++++++        ,+++++++++++++++++++++++++++++++++++++++&                =+++++++++++++++++++        ",
"+++++++++++++++++++++++++++++@+                    @++++++++++++++++++++++++++++++++++++++;            +++++++++++++++++++++++++++++++++++;+                    ;;+++++++++++++++++       ",
"+++++++++++++++++++++++++++++        +++++++++       ++++++++++++++++++++++++++++++++++++                +++++++++++++++++++++++++++++++++        +++++++++       ;+++++++++++++++++      ",
"&++++++++++++++++++++++++++=      @@+++++++++++@+     @+++++++++++++++++++++++++++++++++                  +++++++++++++++++++++++++++++.+      +++++++++++++=;     @@+++++++++++++++      ",
" +++++++++++++++++++++++++     ++++++++++++++++++++     -++++++++++++++++++++++++++++++                    ++++++++++++++++++++++++++++      ;++++++++++++++++++     ++++++++++++++++     ",
" ++++++++++++++++++++++++     +++++++++++++++++++++++    ++++++++++++++++++++++++++++++                    +++++++++++++++++++++++++++     +++++++++++++++++++++++    ++++++++++++++++    ",
"  ++++++++++++++++++++++     ;++++++++++++++++++++++++    ++++++++++++++++++++++++++++                      +++++++++++++++++++++++++     ;+++++++++++++++++++++++=    =+++++++++++++++   ",
"  .++++++++++++++++++++    ++++++++++++++++++++++++++++    +++++++++++++++++++++++++++                      +++++++++++++++++++++++@    ;;++++++++++++++++++++++++++.   +++++++++++++++   ",
"  ++++++++++++++++++++    ++++++++++++++++++++++++++++++    ++++++++++++++++++++++++++                      +++++++++++++++++++++++    ++++++++++++++++++++++++++++++    ++++++++++++++@  ",
"   ++++++++++++++++++>   +++++++++++-         +++++++++++   ++++++++++++++++++++++++@                        ++++++++++++++++++++++    +++++++++++         $;++++++++;   ++++++++++++++@@ ",
"   $+++++++++++++++++   $+++++++++               ++++++++;   ++++++++++++++++++++++++                        ++++++++++++++++++++@    +++++++++               *++++++++   ;++++++++++++++ ",
"   $+++++++++++++++++   $++++++++                 +++++++++   +++++++++++++++++++++++                        ++++++++++++++++++++    +++++++++                 +++++++++   ++++++++++++++@",
"    ++++++++++++++++   +++++++@                    ++++++++   '+++++++++++++++++++++&                        ++++++++++++++++++++   *++++++++                   ++++++++   ++++++++++++++)",
"    +++++++++++++++    +++++++                      %%++++++   ++++++++++++++++++++++                        +++++++++++++++++++%   ++++++;;                     +++++++.   +++++++++++++@",
"     ++++++++++++++   ++++++++                       +++++++   +++++++++++++++++++++++                      ++++++++++++++++++++    +++++++                       +++++++   +++++++++++++ ",
"     .+++++++++++++   +++++++                         +++++++  %++++++++++++++++++++++                      ++++++++++++++++++++   ;++++++                         +++++++  +++++++++++++ ",
"     .++++++++++++   @+++++$                          .++++++   ++++++++++++++++++++++                      +++++++++++++++++++    $++++++                         +;+++++   ++++++++++++ ",
"      ++++++++++++   ++++++$                           ++++++   +++++++++++++++++++++++                    ++++++++++++++++++++   +++++++                           ;+++++%  +++++++++++  ",
"      ++++++++++++   ++++++                            +++++%   +++++++++++++++++++++++                    +++++++++++++++++++%   +++++++                           ;+++++%  &+++++++++%  ",
"      ;+++++++++++   ++++++            @@+;+           +++++++  ++++++++++++++++++++++++                  ++++++++++++++++++++@   +++++$            +++++            ++++++  %+++++++++.  ",
"      ++++++++++++   ++++++           +++++++           ++++++  +++++++++++++++++++++++++                ++++++++++++++++++++++   +++++$           ++++++$           ++++++  %++++++++++  ",
"      ++++++++++++   ++++++           +++++++           ++++++  ++++++++++++++++++++++++++              @+++++++++++++++++++++%   +++++-           ++++++=           ++++++  %+++++++++++ ",
"     >+++++++++++.   ++++++          ++++++++           %+++++  ++++++++++++++++++++++++++++>        -++++++++++++++++++++++++%   +++++%           +++++++           ++++++   +++++++++++@",
"     ++++++++++++%   ++++++           ++++++;           ++++++  +++++++++++++++++++++++++++++++++++++++++++++++++++++++++++++++   ++++++           +++++++           ++++++  %+++++++++++@",
"     %+++++++++++%   ++++++           ++++++;           $+++++  ++++++++++++++++++++++++++++++++++++++++++++++++++++++++++++++@   +++++.           ++++++&           ++++++  %+++++++++++*",
"      .+++++++++++   ++++++            +++%%            ++++++  ++++++++++++++++++++++++++++++++++++++++++++++++++++++++++++++$   ++++++            +++++            +++++;  .+++++++++++ ",
"       +++++++++++   ++++++             ++             ++++++$  +++++++++++++++++++++++++++++++++++++++++++++++++++++++++++++++   ++++++             +++             +++++;  +++++++++++  ",
"        ++++++++++   ++++++                            ++++++   ++++++++++++++++++++++++++++++++++++++++++++++++++++++++++++++@   +++++++                           +++++++  ++++++++++-  ",
"                     %+++++'                           +++++&                                                                      ++++++                           ++++++                ",
"                      ++++++                          +++++++                                                                      +++++++                         +++++++                ",
"                      +++++++                         ++++++                                                                       &+++++@                         +++++++                ",
"                      ++++++++                       .++++++                                                                        ++++++&                       ++++++@                 ",
"                       +++++++                      +++++++                                                                         ++++++++                     $++++++@                 ",
"                        ++++++@                    &+++++++                                                                          +++++++                    +$++++++                  ",
"                        ++++++++#                 &++++++%                                                                           ++++++++$                 ++++++++-                  ",
"                         +++++++++               ++++++++                                                                             +++++++++               +++++++++                   ",
"                          +++++++++@           +++++++++;                                                                              ++++++++++           +++++++++@                    ",
"                           ++++++++++++++@=+++++++++++++                                                                                +%+++++++++++&+++%%+++++++++.                     ",
"                            ++++++++++++++++++++++++++@                                                                                  %++++++++++++++++++++++++++                      ",
"                             =+++++++++++++++++++++++                                                                                     $$++++++++++++++++++++++#                       ",
"                               +++++++++++++++++++++                                                                                        +++++++++++++++++++++                         ",
"                                 +++++++++++++++++                                                                                            +++++++++++++++++                           ",
"                                  %-++++++++++++                                                                                                ;++++++++++@&                             "};
