/* XPM */
static char * racing_car_2_xpm[] = {
"186 87 7 1",
" 	c None",
".	c #FFFFFF",
"+	c #814403",
"@	c #E70000",
"#	c #7A2323",
"$	c #C0F1FF",
"%	c #211D1D",
"                                                                                       ............                                                                                       ",
"                                                                                     ................                                                                                     ",
"                                                                                   ....................                                                                                   ",
"                                                                                  .......................                                                                                 ",
"                                                                                 .........................                                                                                ",
"                                                                                ...........................                                                                               ",
"                                                                               .............................                                                                              ",
"                                                                               .............................                                                                              ",
"                                                                               ..............................                                                                             ",
"                                                                              ................................                                                                            ",
"                                                                              ................................                                                                            ",
"                                                                              ................................                                                                            ",
"                                                                              ................................                                                                            ",
"                                                                                         .............                                                                                    ",
"                                                                                                                                                                                          ",
"                                                                                 +++++++                  +++++                                                                           ",
"                                                                                +++++++++++     ++++++++++++++++                                                                          ",
"                                                                               +++++++++++++++++++++++++++++++++                                                                          ",
"                                                                                        ++++++++++++++++++++++       @@@@@@@@                                                             ",
"                                                                                         +++++++++++                @@@@@@@@@@@@@@@                                                       ",
"                                                                                        ++++                        @@@@@@@@@@@@@@@@@@@                                                   ",
"                                                                        +              ++++           ###      #     @@@@@@@@@@@@@@@@@@@@@@                                               ",
"                                                                       +++            ++++    ##########    ######    @@@@@@@@@@@@@@@@@@@@@@@                                             ",
"                                                                 $$    +++    #     ++++++   ###########   #########   @@@@@@@@@@@@@@@@@@@@@@@@                                           ",
"                                                            $$$$$$$$   ++++   ##    ++++    ###########   ###########   @@@@@@@@@@@@@@@@@@@@@@@@@@                                        ",
"                                                         $$$$$$$$$$$$   +++   ###    +     ############  ############   @@@@@@@@@@@@@@@@@@@@@@@@@@@@                                      ",
"                                                       $$$$$$$$$$$$$$   +++   ####        ############   #############   @@@@@@@@@@@@@@@@@@@@@@@@@@@@@                                    ",
"                                                     $$$$$$$$$$$$$$$$   +++    #####    #############   ###############  @@@@@@@@@@@@@@@@@@@@@@@@@@@@@@@                                  ",
"                                                   $$$$$$$$$$$$$$$$$$$   +++    #####################   ###############   @@@@@@@@@@@@@@@@@@@@@@@@@@@@@@@                                 ",
"                                                  $$$$$$$$$$$$$$$$$$$$   +++      ##################   #################  @@@@@@@@@@@@@@@@@@@@@@@@@@@@@@@@@                               ",
"                            @@@@@@@@@@              $$$$$$$$$$$$$$$$$$   ++++      ################   ##################   @@@@@@@@@@@@@@@@@@@@@@@@@@@@@@@@@@                             ",
"                      @@@@@@@@@@@@@@@@@@@@@@@          $$$$$$$$$$$$$$$$   ++       ################   ##################   @@@@@@@@@@@@@@@@@@@@@@@@@@@@@@@@@@@                            ",
"                  @@@@@@@@@@@@@@@@@@@@@@@@@@@@@@@@        $$$$$$$$$$$$$             ##############   ####################   @@@@@@@@@@@@@@@@@@@@@@@@@@@@@@@@@@@                           ",
"               @@@@@@@@@@@@@@@@@@@@@@@@@@@@@@@@@@@@@@@        $$$$$$$$$$     +++++   #############   ####################   @@@@@@@@@@@@@@@@@@@@@@@@@@@@@@@@@@@@@                         ",
"             @@@@@@@@@@@@@@@@@@@@@@@@@@@@@@@@@@@@@@@@@@@@        $$$$$$$   +++++++   ############   #####################    @@@@@@@@@@@@@@@@@@@@@@@@@@@@@@@@@@@@@@@                      ",
"           @@@@@@@@@@@@@@@@@@@@@@@@@@@@@@@@@@@@@@@@@@@@@@@@@        $$$$   ++++++++   ##########   #####################     @@@@@@@@@@@@@@@@@@@@@@@@@@@@@@@@@@@@@@@@@                    ",
"         @@@@@@@@@@@@@@@@@@@@@@@@@@@@@@@@@@@@@@@@@@@@@@@@@@@@@@@           ++++++++    #########   ###############          @@@@@@@@@@@@@@@@@@@@@@@@@@@@@@@@@@@@@@@@@@@@                  ",
"        @@@@@@@@@@@@@@@@@@@@@@@@@@@@@@@@@@@@@@@@@@@@@@@@@@@@@@@@@@@@            ++      #######    ########              @@@@@@@@@@@@@@@@@@@@@@@@@@@@@@@@@@@@@@@@@@@@@@@@@                ",
"      @@@@@@@@@@@@@@@@@@@@@@@@@@@@@@@@@@@@@@@@@@@@@@@@@@@@@@@@@@@@@@@@@@                                             @@@@@@@@@@@@@@@@@@@@@@@@@@@@@@@@@@@@@@@@@@@@@@@@@@@@@@               ",
"     @@@@@@@@@@@@@@@@@@@@@@@@@@@@@@@@@@@@@@@@@@@@@@@@@@@@@@@@@@@@@@@@@@@@@@@@@@@                            @@@@@@@@@@@@@@@@@@@@@@@@@@@@@@@@@@@@@@@@@@@@@@@@@@@@@@@@@@@@@@@@              ",
"    @@@@@@@@@@@@@@@@@@@@@@@@@@@@@@@@@@@@@@@@@@@@@@@@@@@@@@@@@@@@@@@@@@@@@@@@@@@@@@@@@@@@@@@@@@@@@@@@@@@@@@@@@@@@@@@@@@@@@@@@@@@@@@@@@@@@@@@@@@@@@@@@@@@@@@@@@@@@@@@@@@@@@@@@@@            ",
"   @@@@@@@@@@@@@@@@@@@@@@@@@@@@@@@@@@@@@@@@@@@@@@@@@@@@@@@@@@@@@@@@@@@@@@@@@@@@@@@@@@@@@@@@@@@@@@@@@@@@@@@@@@@@@@@@@@@@@@@@@@@@@@@@@@@@@@@@@@@@@@@@@@@@@@@@@@@@@@@@@@@@@@@@@@@@           ",
"  @@@@@@@@@@@@@@@@@@@@@@@@@@@@@@@@@@@@@@@@@@@@@@@@@@@@@@@@@@@@@@@@@@@@@@@@@@@@@@@@@@@@@@@@@@@@@@@@@@@@@@@@@@@@@@@@@@@@@@@@@@@@@@@@@@@@@@@@@@@@@@@@@@@@@@@@@@@@@@@@@@@@@@@@@@@@@@          ",
" @@@@@@@@@@@@@@@@@@@@@@@@@@@@@@@@@@@@        @@@@@@@@@@@@@@@@@@@@@@@@@@@@@@@@@@@@@@@@@@@@@@@@@@@@@@@@@@@@@@@@@@@@@@@@@@@@@@@@@@@@@@@@@@@@@@@@@@@@@        @@@@@@@@@@@@@@@@@@@@@@@         ",
"@@@@@@@@@@@@@@@@@@@@@@@@@@@@@@@@@                @@@@@@@@@@@@@@@@@@@@@@@@@@@@@@@@@@@@@@@@@@@@........@@@@@@@@@@@@@@@@@@@@@@@@@@@@@@@@@@@@@@@@@                @@@@@@@@@@@@@@@@@@@@        ",
"@@@@@@@@@@@@@@@@@@@@@@@@@@@@@@@                    @@@@@@@@@@@@@@@@@@@@@@@@@@@@@@@@@@@@@@@@............@@@@@@@@@@@@@@@@@@@@@@@@@@@@@@@@@@@@@                    @@@@@@@@@@@@@@@@@@@       ",
"@@@@@@@@@@@@@@@@@@@@@@@@@@@@@        %%%%%%%%%       @@@@@@@@@@@@@@@@@@@@@@@@@@@@@@@@@@@@................@@@@@@@@@@@@@@@@@@@@@@@@@@@@@@@@@        %%%%%%%%%       @@@@@@@@@@@@@@@@@@      ",
"@@@@@@@@@@@@@@@@@@@@@@@@@@@@      %%%%%%%%%%%%%%%     @@@@@@@@@@@@@@@@@@@@@@@@@@@@@@@@@@..................@@@@@@@@@@@@@@@@@@@@@@@@@@@@@@@      %%%%%%%%%%%%%%%     @@@@@@@@@@@@@@@@@      ",
" @@@@@@@@@@@@@@@@@@@@@@@@@     %%%%%%%%%%%%%%%%%%%%     @@@@@@@@@@@@@@@@@@@@@@@@@@@@@@@....................@@@@@@@@@@@@@@@@@@@@@@@@@@@@      %%%%%%%%%%%%%%%%%%%     @@@@@@@@@@@@@@@@     ",
" @@@@@@@@@@@@@@@@@@@@@@@@     %%%%%%%%%%%%%%%%%%%%%%%    @@@@@@@@@@@@@@@@@@@@@@@@@@@@@@....................@@@@@@@@@@@@@@@@@@@@@@@@@@@     %%%%%%%%%%%%%%%%%%%%%%%    @@@@@@@@@@@@@@@@    ",
"  @@@@@@@@@@@@@@@@@@@@@@     %%%%%%%%%%%%%%%%%%%%%%%%%    @@@@@@@@@@@@@@@@@@@@@@@@@@@@......................@@@@@@@@@@@@@@@@@@@@@@@@@     %%%%%%%%%%%%%%%%%%%%%%%%%    @@@@@@@@@@@@@@@@   ",
"  @@@@@@@@@@@@@@@@@@@@@    %%%%%%%%%%%%%%%%%%%%%%%%%%%%    @@@@@@@@@@@@@@@@@@@@@@@@@@@......................@@@@@@@@@@@@@@@@@@@@@@@@    %%%%%%%%%%%%%%%%%%%%%%%%%%%%%   @@@@@@@@@@@@@@@   ",
"  @@@@@@@@@@@@@@@@@@@@    %%%%%%%%%%%%%%%%%%%%%%%%%%%%%%    @@@@@@@@@@@@@@@@@@@@@@@@@@......................@@@@@@@@@@@@@@@@@@@@@@@    %%%%%%%%%%%%%%%%%%%%%%%%%%%%%%    @@@@@@@@@@@@@@@  ",
"   @@@@@@@@@@@@@@@@@@@   %%%%%%%%%%%%         %%%%%%%%%%%   @@@@@@@@@@@@@@@@@@@@@@@@@........................@@@@@@@@@@@@@@@@@@@@@@    %%%%%%%%%%%         %%%%%%%%%%%   @@@@@@@@@@@@@@@@ ",
"   @@@@@@@@@@@@@@@@@@   %%%%%%%%%%               %%%%%%%%%   @@@@@@@@@@@@@@@@@@@@@@@@........................@@@@@@@@@@@@@@@@@@@@@    %%%%%%%%%               %%%%%%%%%   @@@@@@@@@@@@@@@ ",
"   @@@@@@@@@@@@@@@@@@   %%%%%%%%%                 %%%%%%%%%   @@@@@@@@@@@@@@@@@@@@@@@........................@@@@@@@@@@@@@@@@@@@@    %%%%%%%%%                 %%%%%%%%%   @@@@@@@@@@@@@@@",
"    @@@@@@@@@@@@@@@@   %%%%%%%%                    %%%%%%%%   @@@@@@@@@@@@@@@@@@@@@@@........................@@@@@@@@@@@@@@@@@@@@   %%%%%%%%%                   %%%%%%%%   @@@@@@@@@@@@@@@",
"    @@@@@@@@@@@@@@@    %%%%%%%                      %%%%%%%%   @@@@@@@@@@@@@@@@@@@@@@........................@@@@@@@@@@@@@@@@@@@@   %%%%%%%%                     %%%%%%%%   @@@@@@@@@@@@@@",
"     @@@@@@@@@@@@@@   %%%%%%%%                       %%%%%%%   @@@@@@@@@@@@@@@@@@@@@@@......................@@@@@@@@@@@@@@@@@@@@    %%%%%%%                       %%%%%%%   @@@@@@@@@@@@@ ",
"     @@@@@@@@@@@@@@   %%%%%%%                         %%%%%%%  @@@@@@@@@@@@@@@@@@@@@@@......................@@@@@@@@@@@@@@@@@@@@   %%%%%%%                         %%%%%%%  @@@@@@@@@@@@@ ",
"     @@@@@@@@@@@@@   %%%%%%%                          %%%%%%%   @@@@@@@@@@@@@@@@@@@@@@......................@@@@@@@@@@@@@@@@@@@    %%%%%%%                         %%%%%%%   @@@@@@@@@@@@ ",
"      @@@@@@@@@@@@   %%%%%%%                           %%%%%%   @@@@@@@@@@@@@@@@@@@@@@@....................@@@@@@@@@@@@@@@@@@@@   %%%%%%%                           %%%%%%%  @@@@@@@@@@@  ",
"      @@@@@@@@@@@@   %%%%%%                            %%%%%%   @@@@@@@@@@@@@@@@@@@@@@@....................@@@@@@@@@@@@@@@@@@@@   %%%%%%%                           %%%%%%%  @@@@@@@@@@@  ",
"      @@@@@@@@@@@@   %%%%%%            %%%%%           %%%%%%%  @@@@@@@@@@@@@@@@@@@@@@@@..................@@@@@@@@@@@@@@@@@@@@@   %%%%%%            %%%%%            %%%%%%  @@@@@@@@@@@  ",
"      @@@@@@@@@@@@   %%%%%%           %%%%%%%           %%%%%%  @@@@@@@@@@@@@@@@@@@@@@@@@................@@@@@@@@@@@@@@@@@@@@@@   %%%%%%           %%%%%%%           %%%%%%  @@@@@@@@@@@  ",
"      @@@@@@@@@@@@   %%%%%%           %%%%%%%           %%%%%%  @@@@@@@@@@@@@@@@@@@@@@@@@@..............@@@@@@@@@@@@@@@@@@@@@@@   %%%%%%           %%%%%%%           %%%%%%  @@@@@@@@@@@@ ",
"     @@@@@@@@@@@@@   %%%%%%          %%%%%%%%           %%%%%%  @@@@@@@@@@@@@@@@@@@@@@@@@@@@@........@@@@@@@@@@@@@@@@@@@@@@@@@@   %%%%%%           %%%%%%%           %%%%%%   @@@@@@@@@@@@",
"     @@@@@@@@@@@@@   %%%%%%           %%%%%%%           %%%%%%  @@@@@@@@@@@@@@@@@@@@@@@@@@@@@@@@@@@@@@@@@@@@@@@@@@@@@@@@@@@@@@@   %%%%%%           %%%%%%%           %%%%%%  @@@@@@@@@@@@@",
"     @@@@@@@@@@@@@   %%%%%%           %%%%%%%           %%%%%%  @@@@@@@@@@@@@@@@@@@@@@@@@@@@@@@@@@@@@@@@@@@@@@@@@@@@@@@@@@@@@@@   %%%%%%           %%%%%%%           %%%%%%  @@@@@@@@@@@@@",
"      @@@@@@@@@@@@   %%%%%%            %%%%%            %%%%%%  @@@@@@@@@@@@@@@@@@@@@@@@@@@@@@@@@@@@@@@@@@@@@@@@@@@@@@@@@@@@@@@   %%%%%%            %%%%%            %%%%%%  @@@@@@@@@@@@ ",
"       @@@@@@@@@@@   %%%%%%             %%             %%%%%%%  @@@@@@@@@@@@@@@@@@@@@@@@@@@@@@@@@@@@@@@@@@@@@@@@@@@@@@@@@@@@@@@   %%%%%%             %%%             %%%%%%  @@@@@@@@@@@  ",
"        @@@@@@@@@@   %%%%%%                            %%%%%%   @@@@@@@@@@@@@@@@@@@@@@@@@@@@@@@@@@@@@@@@@@@@@@@@@@@@@@@@@@@@@@@   %%%%%%%                           %%%%%%%  @@@@@@@@@@@  ",
"                     %%%%%%%                           %%%%%%                                                                      %%%%%%                           %%%%%%                ",
"                      %%%%%%                          %%%%%%%                                                                      %%%%%%%                         %%%%%%%                ",
"                      %%%%%%%                         %%%%%%                                                                       %%%%%%%                         %%%%%%%                ",
"                      %%%%%%%%                       %%%%%%%                                                                        %%%%%%%                       %%%%%%%                 ",
"                       %%%%%%%                      %%%%%%%                                                                         %%%%%%%%                     %%%%%%%%                 ",
"                        %%%%%%%                    %%%%%%%%                                                                          %%%%%%%                    %%%%%%%%                  ",
"                        %%%%%%%%%                 %%%%%%%%                                                                           %%%%%%%%%                 %%%%%%%%%                  ",
"                         %%%%%%%%%               %%%%%%%%                                                                             %%%%%%%%%               %%%%%%%%%                   ",
"                          %%%%%%%%%%           %%%%%%%%%%                                                                              %%%%%%%%%%           %%%%%%%%%%                    ",
"                           %%%%%%%%%%%%%%%%%%%%%%%%%%%%%                                                                                %%%%%%%%%%%%%%%%%%%%%%%%%%%%%                     ",
"                            %%%%%%%%%%%%%%%%%%%%%%%%%%%                                                                                  %%%%%%%%%%%%%%%%%%%%%%%%%%%                      ",
"                             %%%%%%%%%%%%%%%%%%%%%%%%                                                                                     %%%%%%%%%%%%%%%%%%%%%%%%%                       ",
"                               %%%%%%%%%%%%%%%%%%%%%                                                                                        %%%%%%%%%%%%%%%%%%%%%                         ",
"                                 %%%%%%%%%%%%%%%%%                                                                                            %%%%%%%%%%%%%%%%%                           ",
"                                  %%%%%%%%%%%%%%                                                                                                %%%%%%%%%%%%%                             "};
