/* XPM */
static char *ab945c682aba4fe5d489e663e6d56833OJAMuPG5OmbsGgPW[] = {
/* columns rows colors chars-per-pixel */
"100 97 6 1 ",
"  c None",
". c #C7221B",
"X c #DD2720",
"o c #F32C24",
"O c #F33027",
"+ c #F3332A",
/* pixels */
"                                                                                                    ",
"                                                                                                    ",
"                                                                                                    ",
"                                                ooooooooooooooooooooooooooooooooooooooooooooo       ",
"                                                ooooooooooooooooooooooooooooooooooooooooooooo       ",
"                                                ooooooooooooooooooooooooooooooooooooooooooooo       ",
"                                                ooooooooooooooooooooooooooooooooooooooooooooo       ",
"                                             oooooooooooooooooooooooooooooooooooooooooooooooo       ",
"                                             oooooooooooooooooooooooooooooooooooooooooooooooo       ",
"                                             oooooooooooooooooooooooooooooooooooooooooooooooo       ",
"                                         oooooooooooooooooooooooooooooooooooooooooooooooooooo       ",
"                                         oooooooooooooooooooooooooooooooooooooooooooooooooooo       ",
"                                         oooooooooooooooooooooooooooooooooooooooooooooooooooo       ",
"                                         ooooooooooooooooooooooooooooXXXXXXXXXXXXXXoooooooooo       ",
"                                      oooooooooooooooooooooooooooooooXXXXXXXXXXXXXXoooooooooo       ",
"                                      oooooooooooooooooooooooooooooooXXXXXXXXXXXXXXoooooooooo       ",
"                                      oooooooooooooooooooooooooooooooXXXXXXXXXXXXXXoooooooooo       ",
"                                  oooooooooooooooooooooooooooooooXXXXXXXXXXXXXXXXXXoooooooooo       ",
"                                  oooooooooooooooooooooooooooooooXXXXXXXXXXXXXXXXXXoooooooooo       ",
"                                  oooooooooooooooooooooooooooooooXXXXXXXXXXXXXXXXXXoooooooooo       ",
"                                  ooooooooooooooooooooooooooooXXXXXXXXXXXXXXXXXXXXXoooooooooo       ",
"                               oooooooooooooooooooooooooooooooXXXXXXXXXXXXXXXXXXXXXoooooooooo       ",
"                               oooooooooooooooooooooooooooooooXXXXXXXXXXXXXXXXXXXXXoooooooooo       ",
"                               oooooooooooooooooooooooooooooooXXXXXXXXXXXXXXXXXXXXXoooooooooo       ",
"                            ooooooooooooooooooooooooooooooXXXXXXXXXXXXXXXXXXXXXXXXXoooooooooo       ",
"                            ooooooooooooooooooooooooooooooXXXXXXXXXXXXXXXXXXXXXXXXXoooooooooo       ",
"                            ooooooooooooooooooooooooooooooXXXXXXXXXXXXXXXXXXXXXXXXXoooooooooo       ",
"                            ooooooooooooooooooooooooooooooXXXXXXXXXXXXXXXXXXXXXXXXXoooooooooo       ",
"                        oooooooooooooooooooooooooooooooXXXXXXXXXXXXXXXXXXXXXXXXXXXXoooooooooo       ",
"                        oooooooooooooooooooooooooooooooXXXXXXXXXXXXXXXXXXXXXXXXXXXXoooooooooo       ",
"                        oooooooooooooooooooooooooooooooXXXXXXXXXXXXXXXXXXXXXXXXXXXXoooooooooo       ",
"                     oooooooooooooooooooooooooooooooXXXXXXXXXXXXXXXXXXXXXXXXXXXXXXXoooooooooo       ",
"                     oooooooooooooooooooooooooooooooXXXXXXXXXXXXXXXXXXXXXXXXXXXXXXXoooooooooo       ",
"                     oooooooooooooooooooooooooooooooXXXXXXXXXXXXXXXXXXXXXXXXXXXXXXXoooooooooo       ",
"                     oooooooooooooooooooooooooooooooXXXXXXXXXXXXXXXXXXXXXXXXXXXXXXXoooooooooo       ",
"                 oooooooooooooooooooooooooooooooXXXXXXXXXXXXXXXXXXXXXXXXXXXXXXXXXXXoooooooooo       ",
"                 oooooooooooooooooooooooooooooooXXXXXXXXXXXXXXXXXXXXXXXXXXXXXXXXXXXoooooooooo       ",
"                 oooooooooooooooooooooooooooooooXXXXXXXXXXXXXXXXXXXXXXXXXXXXXXXXXXXoooooooooo       ",
"              oooooooooooooo+++ooooooooooooooXXXXXXXXXXXXXXXXXXXXXXXXXXXXXXXXXXXXXXoooooooooo       ",
"              oooooooooooooo+++ooooooooooooooXXXXXXXXXXXXXXXXXXXXXXXXXXXXXXXXXXXXXXoooooooooo       ",
"              oooooooooooooo+++ooooooooooooooXXXXXXXXXXXXXXXXXXXXXXXXXXXXXXXXXXXXXXoooooooooo       ",
"              oooooooooooooo+++ooooooooooooooXXXXXXXXXXXXXXXXXXXXXXXXXXXXXXXXXXXXXXoooooooooo       ",
"          ooooooooooooooOOOOooooooooooooo....XXXXXXXXXXXXXXXXXXXXXXXXXXXXXXXXXXXXXXoooooooooo       ",
"          ooooooooooooooOOOOooooooooooooo....XXXXXXXXXXXXXXXXXXXXXXXXXXXXXXXXXXXXXXoooooooooo       ",
"          ooooooooooooooOOOOooooooooooooo....XXXXXXXXXXXXXXXXXXXXXXXXXXXXXXXXXXXXXXoooooooooo       ",
"       ooooooooooooooOOOoooooooooooooo..........XXXXXXXXXXXXXXXXXXXXXXXXXXXXXXXXXXXoooooooooo       ",
"       ooooooooooooooOOOoooooooooooooo..........XXXXXXXXXXXXXXXXXXXXXXXXXXXXXXXXXXXoooooooooo       ",
"       ooooooooooooooOOOoooooooooooooo..........XXXXXXXXXXXXXXXXXXXXXXXXXXXXXXXXXXXoooooooooo       ",
"       ooooooooooooooOOOoooooooooooooo..........XXXXXXXXXXXXXXXXXXXXXXXXXXXXXXXXXXXoooooooooo       ",
"       ooooooooooooooooooooooooooo..................XXXXXXXXXXXXXXXXXXXXXXXXXXXXXXXoooooooooo       ",
"       ooooooooooooooooooooooooooo..................XXXXXXXXXXXXXXXXXXXXXXXXXXXXXXXoooooooooo       ",
"       ooooooooooooooooooooooooooo..................XXXXXXXXXXXXXXXXXXXXXXXXXXXXXXXoooooooooo       ",
"       oooooooooooooooooooooooo........................XXXXXXXXXXXXXXXXXXXXXXXXXXXXoooooooooo       ",
"       oooooooooooooooooooooooo........................XXXXXXXXXXXXXXXXXXXXXXXXXXXXoooooooooo       ",
"       oooooooooooooooooooooooo........................XXXXXXXXXXXXXXXXXXXXXXXXXXXXoooooooooo       ",
"       ooooooooooooooooooooo...............................XXXXXXXXXXXXXXXXXXXXXXXXoooooooooo       ",
"       ooooooooooooooooooooo...............................XXXXXXXXXXXXXXXXXXXXXXXXoooooooooo       ",
"       ooooooooooooooooooooo...............................XXXXXXXXXXXXXXXXXXXXXXXXoooooooooo       ",
"       ooooooooooooooooooooo...............................XXXXXXXXXXXXXXXXXXXXXXXXoooooooooo       ",
"       ooooooooooooooooo......................................XXXXXXXXXXXXXXXXXXXXXoooooooooo       ",
"       ooooooooooooooooo......................................XXXXXXXXXXXXXXXXXXXXXoooooooooo       ",
"       ooooooooooooooooo......................................XXXXXXXXXXXXXXXXXXXXXoooooooooo       ",
"       oooooooooooooo.............................................XXXXXXXXXXXXXXXXXoooooooooo       ",
"       oooooooooooooo.............................................XXXXXXXXXXXXXXXXXoooooooooo       ",
"       oooooooooooooo.............................................XXXXXXXXXXXXXXXXXoooooooooo       ",
"       oooooooooooooo.............................................XXXXXXXXXXXXXXXXXoooooooooo       ",
"       oooooooooo....................................................XXXXXXXXXXXXXXoooooooooo       ",
"       oooooooooo....................................................XXXXXXXXXXXXXXoooooooooo       ",
"       oooooooooo....................................................XXXXXXXXXXXXXXoooooooooo       ",
"       oooooooooo.......................................................XXXXXXXXXXXoooooooooo       ",
"       oooooooooo.......................................................XXXXXXXXXXXoooooooooo       ",
"       oooooooooo.......................................................XXXXXXXXXXXoooooooooo       ",
"       oooooooooo.......................................................XXXXXXXXXXXoooooooooo       ",
"       oooooooooo...........................................................XXXXXXXoooooooooo       ",
"       oooooooooo...........................................................XXXXXXXoooooooooo       ",
"       oooooooooo...........................................................XXXXXXXoooooooooo       ",
"       oooooooooo..............................................................XXXXoooooooooo       ",
"       oooooooooo..............................................................XXXXoooooooooo       ",
"       oooooooooo..............................................................XXXXoooooooooo       ",
"       oooooooooo..............................................................XXXXoooooooooo       ",
"       oooooooooooooooooooooooooooooooooooooooooooooooooooooooooooooooooooooooooooooooooooooo       ",
"       oooooooooooooooooooooooooooooooooooooooooooooooooooooooooooooooooooooooooooooooooooooo       ",
"       oooooooooooooooooooooooooooooooooooooooooooooooooooooooooooooooooooooooooooooooooooooo       ",
"       oooooooooooooooooooooooooooooooooooooooooooooooooooooooooooooooooooooooooooooooooooooo       ",
"       oooooooooooooooooooooooooooooooooooooooooooooooooooooooooooooooooooooooooooooooooooooo       ",
"       oooooooooooooooooooooooooooooooooooooooooooooooooooooooooooooooooooooooooooooooooooooo       ",
"       oooooooooooooooooooooooooooooooooooooooooooooooooooooooooooooooooooooooooooooooooooooo       ",
"       oooooooooooooooooooooooooooooooooooooooooooooooooooooooooooooooooooooooooooooooooooooo       ",
"       oooooooooooooooooooooooooooooooooooooooooooooooooooooooooooooooooooooooooooooooooooooo       ",
"       oooooooooooooooooooooooooooooooooooooooooooooooooooooooooooooooooooooooooooooooooooooo       ",
"                                                                                                    ",
"                                                                                                    ",
"                                                                                                    ",
"                                                                                                    ",
"                                                                                                    ",
"                                                                                                    ",
"                                                                                                    "
};
